<svg width="202" height="104" viewBox="0 0 202 104" fill="none" xmlns="http://www.w3.org/2000/svg">
<path d="M101 92.9574C156.781 92.9574 202 91.697 202 90.1423C202 88.5876 156.781 87.3272 101 87.3272C45.2192 87.3272 0 88.5876 0 90.1423C0 91.697 45.2192 92.9574 101 92.9574Z" fill="#D4F1F4"/>
<path d="M154.826 59.6388C154.698 59.6406 154.571 59.6423 154.442 59.6423C154.312 59.6423 154.185 59.6406 154.057 59.6388C147.296 59.4856 142.396 55.2764 143.643 50.86L146.685 40.0863L147.454 37.3602L161.08 37.5917L161.908 40.2586L165.168 50.7556C166.548 55.1963 161.648 59.4856 154.826 59.6388Z" fill="#05445E"/>
<path opacity="0.2" d="M161.908 40.2586C159.585 41.582 156.949 42.2638 154.273 42.2335C151.597 42.2032 148.977 41.462 146.685 40.0863L147.453 37.3602L161.08 37.5917L161.908 40.2586Z" fill="#05445E"/>
<path d="M161.333 51.2175C161.922 49.0315 163.856 45.878 169.282 42.0758C178.745 35.4438 173.1 30.4711 172.855 30.2628C172.342 29.8257 172.418 29.335 173.031 29.1674C173.388 29.0964 173.755 29.1021 174.109 29.1842C174.463 29.2663 174.796 29.4229 175.084 29.6434C175.39 29.8959 182.459 35.9106 171.781 43.3932C162.172 50.1282 164.215 54.5247 164.238 54.5669C164.496 55.0371 164.083 55.4133 163.315 55.4082C162.547 55.4032 161.716 55.0182 161.458 54.5485C161.403 54.4491 160.785 53.2526 161.333 51.2175Z" fill="#05445E"/>
<path d="M148.152 61.209C147.946 61.209 147.741 61.1685 147.551 61.0898C147.36 61.011 147.186 60.8956 147.04 60.7501C146.894 60.6047 146.779 60.4319 146.7 60.2419C146.621 60.0518 146.58 59.848 146.58 59.6423V52.8532C146.58 52.4377 146.746 52.0392 147.04 51.7454C147.335 51.4516 147.735 51.2865 148.152 51.2865C148.569 51.2865 148.969 51.4516 149.264 51.7454C149.559 52.0392 149.725 52.4377 149.725 52.8532V59.6423C149.725 59.848 149.684 60.0518 149.605 60.2419C149.526 60.4319 149.41 60.6047 149.264 60.7501C149.118 60.8956 148.945 61.011 148.754 61.0898C148.563 61.1685 148.359 61.209 148.152 61.209Z" fill="#05445E"/>
<path d="M149.531 45.0914C149.445 45.2784 149.322 45.4465 149.171 45.5863C149.019 45.726 148.841 45.8347 148.648 45.9061C148.454 45.9774 148.248 46.0101 148.042 46.0022C147.836 45.9942 147.633 45.9459 147.445 45.8599L141.256 43.0223C140.877 42.8483 140.584 42.5318 140.439 42.1423C140.295 41.7527 140.312 41.322 140.486 40.9448C140.66 40.5676 140.977 40.2747 141.368 40.1305C141.759 39.9863 142.191 40.0025 142.57 40.1757L148.76 43.0133C148.947 43.0993 149.116 43.2213 149.256 43.3722C149.397 43.5232 149.506 43.7003 149.577 43.8932C149.649 44.0862 149.682 44.2913 149.674 44.4969C149.666 44.7025 149.617 44.9045 149.531 45.0914Z" fill="#05445E"/>
<path d="M159.352 45.0914C159.438 45.2784 159.561 45.4465 159.712 45.5863C159.864 45.726 160.042 45.8347 160.235 45.9061C160.429 45.9774 160.635 46.0101 160.841 46.0022C161.047 45.9942 161.25 45.9459 161.438 45.8599L167.627 43.0223C168.006 42.8486 168.3 42.5321 168.445 42.1423C168.59 41.7526 168.573 41.3216 168.399 40.9441C168.224 40.5666 167.907 40.2736 167.516 40.1295C167.124 39.9854 166.692 40.002 166.313 40.1757L160.123 43.0133C159.936 43.0993 159.767 43.2213 159.627 43.3722C159.487 43.5232 159.377 43.7002 159.306 43.8932C159.234 44.0862 159.201 44.2913 159.209 44.4969C159.217 44.7025 159.266 44.9045 159.352 45.0914Z" fill="#05445E"/>
<path d="M160.731 61.209C160.937 61.209 161.142 61.1685 161.332 61.0898C161.523 61.011 161.697 60.8956 161.843 60.7501C161.989 60.6047 162.104 60.4319 162.183 60.2419C162.262 60.0518 162.303 59.848 162.303 59.6423V52.8532C162.303 52.4377 162.137 52.0392 161.843 51.7454C161.548 51.4516 161.148 51.2865 160.731 51.2865C160.314 51.2865 159.914 51.4516 159.619 51.7454C159.324 52.0392 159.158 52.4377 159.158 52.8532V59.6423C159.158 59.848 159.199 60.0518 159.278 60.2419C159.357 60.4319 159.473 60.6047 159.619 60.7501C159.765 60.8956 159.938 61.011 160.129 61.0898C160.32 61.1685 160.524 61.209 160.731 61.209Z" fill="#05445E"/>
<path d="M167.302 17.2567C167.437 17.0862 167.536 16.8889 167.589 16.6778C167.643 16.4668 167.651 16.2467 167.614 16.0323L166.758 11.0161L165.902 5.99992C165.856 5.72908 165.739 5.47513 165.563 5.26359C165.387 5.05206 165.158 4.8904 164.9 4.79485C164.642 4.6993 164.362 4.67324 164.091 4.71928C163.819 4.76532 163.564 4.88184 163.352 5.05713L159.42 8.30366L157.051 10.2596C155.471 9.97967 153.857 9.9554 152.269 10.1877L149.987 8.30366L146.055 5.05713C145.843 4.88184 145.588 4.76532 145.316 4.71928C145.045 4.67324 144.766 4.69931 144.507 4.79485C144.249 4.8904 144.02 5.05207 143.844 5.2636C143.668 5.47513 143.551 5.72908 143.505 5.99992L142.649 11.0161L141.793 16.0323C141.748 16.2959 141.771 16.5668 141.862 16.8187C140.395 19.0589 139.558 21.6497 139.437 24.3216C139.316 26.9935 139.915 29.649 141.173 32.0117C142.431 34.3745 144.302 36.3582 146.59 37.7565C148.878 39.1549 151.5 39.9168 154.184 39.963C156.868 40.0092 159.515 39.338 161.85 38.0193C164.186 36.7005 166.124 34.7824 167.463 32.4643C168.802 30.1463 169.493 27.5131 169.465 24.8386C169.437 22.1641 168.69 19.546 167.302 17.2567Z" fill="#05445E"/>
<path d="M145.661 7.1127C145.568 7.11283 145.476 7.12956 145.388 7.16209C145.26 7.20867 145.146 7.28849 145.059 7.39335C144.972 7.4982 144.914 7.6243 144.892 7.7587L143.854 13.8418C143.832 13.9759 143.844 14.1136 143.892 14.2411C143.939 14.3686 144.02 14.4815 144.125 14.5682C144.23 14.655 144.356 14.7127 144.491 14.7355C144.625 14.7583 144.764 14.7454 144.892 14.6981L150.697 12.552C150.825 12.5047 150.938 12.4247 151.026 12.3199C151.113 12.2152 151.171 12.0895 151.193 11.9554C151.216 11.8214 151.203 11.6837 151.156 11.5562C151.108 11.4286 151.028 11.3158 150.923 11.2291L150.923 11.2289L146.155 7.29196C146.017 7.17648 145.842 7.11304 145.661 7.1127Z" fill="#D4F1F4"/>
<path d="M163.746 7.1127C163.565 7.11304 163.391 7.17648 163.252 7.29196L158.484 11.2291C158.379 11.3158 158.299 11.4286 158.251 11.5562C158.204 11.6837 158.191 11.8214 158.214 11.9554C158.237 12.0895 158.295 12.2152 158.382 12.3199C158.469 12.4247 158.582 12.5047 158.71 12.552L164.516 14.6981C164.644 14.7454 164.782 14.7583 164.916 14.7355C165.051 14.7127 165.177 14.655 165.282 14.5682C165.387 14.4815 165.468 14.3686 165.515 14.2411C165.563 14.1136 165.576 13.9759 165.553 13.8418L164.515 7.7587C164.493 7.6243 164.435 7.4982 164.348 7.39335C164.261 7.28849 164.147 7.20867 164.019 7.16209C163.931 7.12956 163.839 7.11284 163.746 7.1127Z" fill="#D4F1F4"/>
<path d="M154.442 29.1785C155.599 29.1785 156.538 28.2433 156.538 27.0896C156.538 25.9359 155.599 25.0006 154.442 25.0006C153.284 25.0006 152.345 25.9359 152.345 27.0896C152.345 28.2433 153.284 29.1785 154.442 29.1785Z" fill="#D4F1F4"/>
<path d="M154.442 26.5674C155.213 26.5674 155.839 26.3335 155.839 26.0451C155.839 25.7567 155.213 25.5229 154.442 25.5229C153.67 25.5229 153.044 25.7567 153.044 26.0451C153.044 26.3335 153.67 26.5674 154.442 26.5674Z" fill="#05445E"/>
<path d="M153.393 28.3081H155.315V30.6582C155.315 30.7839 155.29 30.9084 155.242 31.0246C155.194 31.1408 155.123 31.2463 155.034 31.3352C154.944 31.4241 154.838 31.4946 154.722 31.5428C154.605 31.5909 154.48 31.6156 154.354 31.6156C154.099 31.6156 153.855 31.5148 153.675 31.3352C153.495 31.1557 153.393 30.9121 153.393 30.6582V28.3081H153.393Z" fill="#FF6584"/>
<path d="M154.558 4.61377C154.457 4.822 154.36 5.03248 154.268 5.24726C153.183 7.76682 152.818 10.5356 153.211 13.2488C153.408 12.9645 153.614 12.6682 153.825 12.3687C153.374 9.76463 153.627 7.08809 154.558 4.61377Z" fill="#05445E"/>
<path d="M156.13 6.52863C156.03 6.73685 155.932 6.94733 155.84 7.16212C154.756 9.68167 154.39 12.4504 154.783 15.1637C154.98 14.8793 155.187 14.5831 155.397 14.2835C154.947 11.6795 155.2 9.00295 156.13 6.52863Z" fill="#05445E"/>
<path d="M160.978 44.1213L160.757 41.3145L160.535 38.5077C160.523 38.3561 160.471 38.2104 160.385 38.0851C160.299 37.9598 160.181 37.8594 160.043 37.7939C159.905 37.7284 159.753 37.7003 159.601 37.7122C159.448 37.7241 159.302 37.7757 159.176 37.8618L156.848 39.4563L155.147 40.6207C155.038 40.4939 154.904 40.3921 154.752 40.3223C154.6 40.2525 154.434 40.2164 154.267 40.2164C154.1 40.2164 153.934 40.2525 153.782 40.3223C153.63 40.3921 153.495 40.4939 153.387 40.6207L151.686 39.4563L149.357 37.8618C149.232 37.7757 149.085 37.7241 148.933 37.7122C148.781 37.7003 148.629 37.7284 148.491 37.7939C148.353 37.8593 148.235 37.9598 148.149 38.0851C148.062 38.2103 148.011 38.3561 147.999 38.5076L147.777 41.3145L147.556 44.1213C147.544 44.2728 147.572 44.4249 147.638 44.5621C147.703 44.6993 147.804 44.8168 147.93 44.9029C148.056 44.989 148.202 45.0406 148.354 45.0525C148.506 45.0644 148.659 45.0363 148.796 44.9708L151.347 43.7585L153.442 42.7625C153.55 42.8713 153.678 42.9578 153.82 43.0167C153.961 43.0757 154.113 43.1061 154.267 43.1061C154.42 43.1061 154.572 43.0757 154.714 43.0167C154.856 42.9578 154.984 42.8713 155.092 42.7625L157.187 43.7585L159.737 44.9708C159.875 45.0363 160.028 45.0644 160.18 45.0525C160.332 45.0406 160.478 44.989 160.604 44.9029C160.73 44.8168 160.83 44.6993 160.896 44.5621C160.962 44.4249 160.99 44.2729 160.978 44.1213Z" fill="#D4F1F4"/>
<path d="M151.646 25.3488C151.936 25.3488 152.17 25.115 152.17 24.8266C152.17 24.5381 151.936 24.3043 151.646 24.3043C151.357 24.3043 151.122 24.5381 151.122 24.8266C151.122 25.115 151.357 25.3488 151.646 25.3488Z" fill="#D4F1F4"/>
<path d="M157.237 25.3488C157.526 25.3488 157.761 25.115 157.761 24.8266C157.761 24.5381 157.526 24.3043 157.237 24.3043C156.947 24.3043 156.713 24.5381 156.713 24.8266C156.713 25.115 156.947 25.3488 157.237 25.3488Z" fill="#D4F1F4"/>
<path d="M53.0347 55.025C53.1622 55.0268 53.2897 55.0285 53.419 55.0285C53.5483 55.0285 53.6758 55.0268 53.8034 55.025C60.5643 54.8719 65.4647 50.6626 64.2173 46.2463L61.1758 35.4725L60.4071 32.7465L46.7804 32.978L45.9523 35.6449L42.6923 46.1418C41.3122 50.5826 46.2126 54.8719 53.0347 55.025Z" fill="#05445E"/>
<path opacity="0.2" d="M45.9524 35.6449C48.2758 36.9683 50.9116 37.65 53.5876 37.6197C56.2637 37.5894 58.8832 36.8482 61.1759 35.4725L60.4072 32.7465L46.7805 32.978L45.9524 35.6449Z" fill="#05445E"/>
<path d="M44.8724 45.3268C43.4016 43.602 40.2987 41.5767 33.7621 40.4536C22.3617 38.4939 25.3281 31.5927 25.4597 31.3001C25.7358 30.6863 25.4566 30.2751 24.8301 30.3852C24.4775 30.473 24.1477 30.6349 23.863 30.86C23.5783 31.0852 23.3452 31.3684 23.1793 31.6906C23.0109 32.0495 19.2051 40.4995 32.0691 42.7097C43.6467 44.6998 43.688 49.5446 43.6849 49.5927C43.6541 50.1275 44.1889 50.2915 44.8806 49.9596C45.5723 49.6276 46.1586 48.9252 46.1904 48.3905C46.1968 48.2775 46.2419 46.9324 44.8724 45.3268Z" fill="#05445E"/>
<path d="M59.7083 56.5953C59.9148 56.5953 60.1192 56.5547 60.31 56.476C60.5008 56.3973 60.6741 56.2819 60.8201 56.1364C60.9661 55.9909 61.0819 55.8182 61.1609 55.6281C61.24 55.438 61.2806 55.2343 61.2806 55.0285V48.2395C61.2801 47.8243 61.1142 47.4263 60.8194 47.1329C60.5246 46.8395 60.125 46.6747 59.7083 46.6747C59.2916 46.6747 58.892 46.8395 58.5972 47.1329C58.3024 47.4263 58.1365 47.8243 58.136 48.2395V55.0285C58.136 55.2343 58.1766 55.438 58.2557 55.6281C58.3347 55.8182 58.4505 55.9909 58.5965 56.1364C58.7425 56.2819 58.9158 56.3973 59.1066 56.476C59.2974 56.5547 59.5018 56.5953 59.7083 56.5953Z" fill="#05445E"/>
<path d="M58.3297 40.4777C58.416 40.6646 58.5384 40.8327 58.6899 40.9725C58.8415 41.1123 59.0191 41.2209 59.2128 41.2923C59.4065 41.3637 59.6123 41.3963 59.8187 41.3884C60.025 41.3805 60.2277 41.3321 60.4153 41.2461L66.605 38.4085C66.7928 38.3226 66.9618 38.2007 67.1022 38.0498C67.2427 37.8988 67.352 37.7217 67.4237 37.5287C67.4955 37.3356 67.5284 37.1303 67.5205 36.9246C67.5126 36.7189 67.4641 36.5167 67.3777 36.3297C67.2913 36.1426 67.1688 35.9744 67.0172 35.8345C66.8655 35.6947 66.6877 35.5861 66.4939 35.5147C66.3 35.4434 66.094 35.4109 65.8875 35.419C65.6811 35.4271 65.4782 35.4756 65.2906 35.5619L59.1009 38.3995C58.9134 38.4855 58.7446 38.6075 58.6043 38.7585C58.4641 38.9094 58.355 39.0865 58.2834 39.2794C58.2118 39.4724 58.179 39.6776 58.187 39.8831C58.1949 40.0887 58.2434 40.2908 58.3297 40.4777Z" fill="#05445E"/>
<path d="M48.5085 40.4777C48.4222 40.6646 48.2998 40.8327 48.1483 40.9725C47.9968 41.1123 47.8191 41.2209 47.6255 41.2923C47.4318 41.3637 47.2259 41.3963 47.0196 41.3884C46.8133 41.3805 46.6105 41.3321 46.423 41.2461L40.2333 38.4085C40.0455 38.3226 39.8765 38.2007 39.736 38.0498C39.5955 37.8988 39.4863 37.7217 39.4145 37.5287C39.3428 37.3356 39.3099 37.1303 39.3178 36.9246C39.3257 36.7189 39.3742 36.5167 39.4606 36.3297C39.5469 36.1426 39.6695 35.9744 39.8211 35.8345C39.9728 35.6947 40.1506 35.5861 40.3444 35.5147C40.5383 35.4434 40.7443 35.4109 40.9507 35.419C41.1572 35.4271 41.36 35.4756 41.5477 35.5619L47.7373 38.3995C47.9249 38.4855 48.0937 38.6075 48.2339 38.7585C48.3742 38.9094 48.4833 39.0865 48.5549 39.2794C48.6265 39.4724 48.6593 39.6776 48.6513 39.8831C48.6434 40.0887 48.5948 40.2908 48.5085 40.4777Z" fill="#05445E"/>
<path d="M47.1299 56.5953C46.9234 56.5953 46.719 56.5547 46.5282 56.476C46.3375 56.3973 46.1641 56.2819 46.0181 56.1364C45.8721 55.9909 45.7563 55.8182 45.6773 55.6281C45.5983 55.438 45.5576 55.2343 45.5576 55.0285V48.2395C45.5581 47.8243 45.724 47.4263 46.0188 47.1329C46.3136 46.8395 46.7133 46.6747 47.1299 46.6747C47.5466 46.6747 47.9462 46.8395 48.2411 47.1329C48.5359 47.4263 48.7017 47.8243 48.7022 48.2395V55.0285C48.7022 55.2343 48.6616 55.438 48.5826 55.6281C48.5035 55.8182 48.3877 55.9909 48.2417 56.1364C48.0957 56.2819 47.9224 56.3973 47.7316 56.476C47.5409 56.5547 47.3364 56.5953 47.1299 56.5953Z" fill="#05445E"/>
<path d="M65.9988 12.2049C66.0894 11.9531 66.113 11.6821 66.0673 11.4185L65.2115 6.40233L64.3558 1.38616C64.3096 1.11532 64.1927 0.861369 64.0167 0.649836C63.8408 0.438302 63.6121 0.27664 63.3536 0.181091C63.0951 0.085543 62.816 0.0594757 62.5442 0.105514C62.2723 0.151553 62.0175 0.268075 61.8052 0.443365L57.8734 3.6899L55.5916 5.57396C54.0041 5.34164 52.3894 5.3659 50.8097 5.64581L48.4409 3.68989L44.5091 0.443358C44.2968 0.268068 44.0419 0.151547 43.7701 0.105508C43.4983 0.0594684 43.2191 0.0855326 42.9606 0.181081C42.7021 0.276629 42.4734 0.438295 42.2975 0.649829C42.1216 0.861363 42.0047 1.11531 41.9585 1.38615L41.1027 6.40233L40.247 11.4185C40.2092 11.633 40.2175 11.853 40.2713 12.064C40.3251 12.2751 40.4232 12.4724 40.5591 12.6429C39.1693 14.9328 38.4208 17.5519 38.3915 20.2277C38.3622 22.9036 39.0531 25.5384 40.3924 27.8579C41.7317 30.1774 43.6703 32.0969 46.0066 33.4166C48.3429 34.7363 50.9915 35.408 53.6767 35.3618C56.3618 35.3156 58.9855 34.5531 61.2747 33.1538C63.5638 31.7544 65.4348 29.7693 66.6928 27.4051C67.9509 25.0409 68.55 22.3839 68.428 19.7106C68.3059 17.0374 67.4671 14.4456 65.9988 12.2049H65.9988Z" fill="#05445E"/>
<path d="M61.7057 2.67819L56.9377 6.61511L56.9376 6.61528C56.8326 6.70206 56.7522 6.81487 56.7048 6.94238C56.6573 7.06989 56.6444 7.2076 56.6672 7.34167C56.6901 7.47574 56.748 7.60145 56.8351 7.70617C56.9222 7.81088 57.0354 7.89091 57.1633 7.93821L62.9691 10.0843C63.0971 10.1316 63.2353 10.1445 63.3699 10.1217C63.5044 10.0989 63.6306 10.0412 63.7357 9.95445C63.8408 9.86767 63.9212 9.75485 63.9686 9.62733C64.0161 9.49981 64.0291 9.36209 64.0062 9.22799L62.9685 3.14493C62.9464 3.01053 62.8887 2.88443 62.8015 2.77958C62.7143 2.67472 62.6006 2.5949 62.4722 2.54832C62.3849 2.51579 62.2924 2.49906 62.1991 2.49893C62.0187 2.49927 61.844 2.56271 61.7057 2.67819Z" fill="#D4F1F4"/>
<path d="M43.8419 2.54832C43.7134 2.5949 43.5998 2.67472 43.5125 2.77957C43.4253 2.88443 43.3677 3.01053 43.3456 3.14493L42.3079 9.22799C42.285 9.36209 42.298 9.49981 42.3454 9.62733C42.3929 9.75485 42.4732 9.86767 42.5783 9.95445C42.6835 10.0412 42.8096 10.0989 42.9442 10.1217C43.0788 10.1445 43.217 10.1316 43.345 10.0843L49.1507 7.93821C49.2787 7.89091 49.3919 7.81088 49.479 7.70616C49.5661 7.60145 49.624 7.47574 49.6468 7.34167C49.6697 7.2076 49.6568 7.06989 49.6093 6.94238C49.5618 6.81487 49.4815 6.70206 49.3764 6.61528L44.6084 2.67819C44.4701 2.56271 44.2954 2.49927 44.1149 2.49893C44.0217 2.49906 43.9292 2.51579 43.8419 2.54832Z" fill="#D4F1F4"/>
<path d="M53.4192 24.5648C54.577 24.5648 55.5156 23.6295 55.5156 22.4758C55.5156 21.3221 54.577 20.3869 53.4192 20.3869C52.2614 20.3869 51.3228 21.3221 51.3228 22.4758C51.3228 23.6295 52.2614 24.5648 53.4192 24.5648Z" fill="#D4F1F4"/>
<path d="M53.4191 21.9536C54.191 21.9536 54.8167 21.7198 54.8167 21.4314C54.8167 21.1429 54.191 20.9091 53.4191 20.9091C52.6472 20.9091 52.0215 21.1429 52.0215 21.4314C52.0215 21.7198 52.6472 21.9536 53.4191 21.9536Z" fill="#05445E"/>
<path d="M53.5064 27.0019C53.3802 27.0019 53.2553 26.9771 53.1387 26.929C53.0221 26.8809 52.9162 26.8103 52.827 26.7214C52.7378 26.6325 52.667 26.527 52.6187 26.4108C52.5704 26.2947 52.5456 26.1702 52.5456 26.0444V23.6944H54.4673V26.0444C54.4673 26.1702 54.4424 26.2947 54.3941 26.4108C54.3459 26.527 54.2751 26.6325 54.1859 26.7214C54.0966 26.8103 53.9907 26.8809 53.8741 26.929C53.7576 26.9771 53.6326 27.0019 53.5064 27.0019Z" fill="#FF6584"/>
<path d="M53.3025 0C53.4033 0.208227 53.5011 0.418705 53.5931 0.633488C54.6773 3.15304 55.043 5.9218 54.6498 8.63506C54.4531 8.3507 54.2464 8.05443 54.0361 7.7549C54.4864 5.15086 54.2332 2.47432 53.3025 0Z" fill="#05445E"/>
<path d="M51.7302 1.91486C51.831 2.12308 51.9288 2.33356 52.0209 2.54834C53.1051 5.0679 53.4707 7.83666 53.0775 10.5499C52.8808 10.2656 52.6741 9.96929 52.4639 9.66976C52.9142 7.06572 52.661 4.38918 51.7302 1.91486Z" fill="#05445E"/>
<path d="M46.8826 9.04378L47.1041 6.23695L47.3255 3.43013C47.3375 3.27857 47.3893 3.13283 47.4757 3.00754C47.5621 2.88225 47.6801 2.78183 47.8178 2.71638C47.9555 2.65092 48.108 2.62274 48.2601 2.63465C48.4122 2.64657 48.5585 2.69817 48.6842 2.78427L51.013 4.37882L52.7135 5.54322C52.8222 5.41642 52.9571 5.31461 53.1091 5.2448C53.2611 5.17498 53.4264 5.13884 53.5938 5.13884C53.7611 5.13884 53.9265 5.17498 54.0785 5.2448C54.2304 5.31461 54.3654 5.41642 54.4741 5.54322L56.1746 4.37882L58.5033 2.78427C58.6291 2.69817 58.7753 2.64657 58.9274 2.63465C59.0795 2.62274 59.2321 2.65092 59.3698 2.71638C59.5075 2.78183 59.6255 2.88225 59.7119 3.00754C59.7983 3.13283 59.85 3.27857 59.862 3.43013L60.0835 6.23695L60.305 9.04378C60.317 9.19533 60.2887 9.34735 60.223 9.48455C60.1573 9.62176 60.0565 9.73931 59.9308 9.8254C59.8051 9.9115 59.6588 9.9631 59.5067 9.97502C59.3546 9.98693 59.202 9.95875 59.0643 9.89329L56.5141 8.68102L54.4187 7.68494C54.3109 7.7938 54.1824 7.88024 54.0408 7.93923C53.8992 7.99823 53.7473 8.02861 53.5938 8.02861C53.4403 8.02861 53.2883 7.99823 53.1467 7.93923C53.0051 7.88024 52.8767 7.7938 52.7688 7.68494L50.6734 8.68102L48.1232 9.89331C47.9855 9.95876 47.833 9.98695 47.6809 9.97503C47.5288 9.96312 47.3825 9.91151 47.2568 9.82542C47.131 9.73932 47.0303 9.62176 46.9646 9.48455C46.8989 9.34735 46.8706 9.19533 46.8826 9.04378Z" fill="#D4F1F4"/>
<path d="M55.6902 20.2128C55.6902 20.5012 55.9248 20.2128 56.2143 20.2128C56.5038 20.2128 56.7384 20.5012 56.7384 20.2128C56.7381 20.0745 56.6828 19.9419 56.5845 19.8442C56.4863 19.7465 56.3531 19.6917 56.2143 19.6917C56.0755 19.6917 55.9423 19.7465 55.8441 19.8442C55.7458 19.9419 55.6905 20.0745 55.6902 20.2128Z" fill="#D4F1F4"/>
<path d="M51.1481 20.2128C51.1481 20.5012 50.9134 20.2128 50.624 20.2128C50.3345 20.2128 50.0999 20.5012 50.0999 20.2128C50.1001 20.0745 50.1555 19.9419 50.2537 19.8442C50.352 19.7465 50.4851 19.6917 50.624 19.6917C50.7628 19.6917 50.8959 19.7465 50.9942 19.8442C51.0924 19.9419 51.1478 20.0745 51.1481 20.2128Z" fill="#D4F1F4"/>
<path d="M109.296 59.6433V56.3237H92.6387V56.5313V59.6433V86.4071V89.7267H95.9701H109.296V86.4071H95.9701V59.6433H109.296Z" fill="#05445E"/>
<path d="M117.416 56.3238V89.7267H134.073V56.3238H117.416ZM130.742 86.4071H120.747V59.6433H130.742V86.4071Z" fill="#D4F1F4"/>
<path d="M71.1925 86.4072V56.5313H67.8611V86.4072V89.7268H71.1925H84.5182V86.4072H71.1925Z" fill="#D4F1F4"/>
<path d="M60.3654 59.6433V56.3237H43.7083V56.5313V59.6433V71.2617V74.5813V86.4071V89.7267H47.0397H60.3654V86.4071H47.0397V74.5813H60.3654V71.2617H47.0397V59.6433H60.3654Z" fill="#05445E"/>
<path d="M190.707 59.6433V56.3237H174.05V56.5313V59.6433V71.2617V74.5813V86.4071V89.7267H177.382H190.707V86.4071H177.382V74.5813H190.707V71.2617H177.382V59.6433H190.707Z" fill="#D4F1F4"/>
<path d="M32.4647 56.5313V83.9667L23.6809 75.2143L23.6609 75.2345L23.6422 75.2159L14.6625 84.1636V56.4276H11.3311V89.6231H14.6625V88.8581L23.6625 79.8902L32.4647 88.6614V89.7268H35.7962V56.5313H32.4647Z" fill="#05445E"/>
<path d="M163.015 56.5313V57.2961L154.015 66.2639L145.212 57.493V56.4276H141.881V89.6231H145.212V62.1875L153.996 70.94L154.017 70.9199L154.035 70.9382L163.015 61.9905V89.7268H166.346V56.5313H163.015Z" fill="#05445E"/>
<path d="M76.13 36.0823C77.2593 36.0823 78.1748 35.1701 78.1748 34.0448C78.1748 32.9195 77.2593 32.0072 76.13 32.0072C75.0007 32.0072 74.0852 32.9195 74.0852 34.0448C74.0852 35.1701 75.0007 36.0823 76.13 36.0823Z" fill="#D4F1F4"/>
<path d="M25.6911 58.7215C26.8204 58.7215 27.7359 57.8093 27.7359 56.684C27.7359 55.5587 26.8204 54.6465 25.6911 54.6465C24.5617 54.6465 23.6462 55.5587 23.6462 56.684C23.6462 57.8093 24.5617 58.7215 25.6911 58.7215Z" fill="#D4F1F4"/>
<path d="M66.133 104C67.2623 104 68.1778 103.088 68.1778 101.962C68.1778 100.837 67.2623 99.9249 66.133 99.9249C65.0036 99.9249 64.0881 100.837 64.0881 101.962C64.0881 103.088 65.0036 104 66.133 104Z" fill="#D4F1F4"/>
<path d="M117.481 42.1949C118.61 42.1949 119.526 41.2827 119.526 40.1574C119.526 39.0321 118.61 38.1198 117.481 38.1198C116.352 38.1198 115.436 39.0321 115.436 40.1574C115.436 41.2827 116.352 42.1949 117.481 42.1949Z" fill="#D4F1F4"/>
<path d="M177.689 102.189C178.819 102.189 179.734 101.277 179.734 100.151C179.734 99.026 178.819 98.1138 177.689 98.1138C176.56 98.1138 175.645 99.026 175.645 100.151C175.645 101.277 176.56 102.189 177.689 102.189Z" fill="#D4F1F4"/>
<path d="M179.734 48.7603C180.863 48.7603 181.779 47.848 181.779 46.7227C181.779 45.5974 180.863 44.6852 179.734 44.6852C178.605 44.6852 177.689 45.5974 177.689 46.7227C177.689 47.848 178.605 48.7603 179.734 48.7603Z" fill="#D4F1F4"/>
<path d="M153.833 85.4358C154.962 85.4358 155.878 84.5236 155.878 83.3983C155.878 82.273 154.962 81.3608 153.833 81.3608C152.704 81.3608 151.788 82.273 151.788 83.3983C151.788 84.5236 152.704 85.4358 153.833 85.4358Z" fill="#D4F1F4"/>
</svg>
